# xmcd
#
# Track frame offsets: 
#        150
#        10017
#        19975
#        28787
#        41267
#        52740
#        64847
#        76765
#        87530
#        99377
#        111990
#        125372
#        139982
#        155475
#        169852
#        181940
#        192800
#        205077
#        218172
#        231422
#        242747
#        254617
#        273832
#        287320
#        299402
#
# Disc length: 4222 seconds
#
# Revision: 0
# Processed by: cddbd v1.5.1PL0 Copyright (c) Steve Scherf et al.
# Submitted via: ExactAudioCopy v0.95a5
#
DISCID=5e107c19
DTITLE=Otis Redding - The definitive Otis Redding vol 1
DYEAR=1900
DGENRE=Soul
TTITLE0=She's All Right - (with The Shooters)
TTITLE1=Gettin' Hip
TTITLE2=Shout Bamalama - (with The Pinetoppers)
TTITLE3=Hey Hey Baby
TTITLE4=These Arms Of Mine
TTITLE5=That's What My Heart Needs
TTITLE6=Mary's Little Lamb
TTITLE7=Pain In My Heart
TTITLE8=Security
TTITLE9=Come To Me
TTITLE10=Don't Leave Me This Way
TTITLE11=Little Ol' Me
TTITLE12=Don't Be Afraid Of Love
TTITLE13=Your One And Only Man
TTITLE14=Chained And Bound
TTITLE15=That's How Strong My Love Is
TTITLE16=Mr. Pitiful
TTITLE17=For Your Precious Love
TTITLE18=I've Been Loving You Too Long (To Stop Now)
TTITLE19=I'm Depending On You
TTITLE20=Ole Man Trouble
TTITLE21=Change Gonna Come
TTITLE22=Down In The Valley
TTITLE23=Shake
TTITLE24=Good To Me
EXTD=
EXTT0=
EXTT1=
EXTT2=
EXTT3=
EXTT4=
EXTT5=
EXTT6=
EXTT7=
EXTT8=
EXTT9=
EXTT10=
EXTT11=
EXTT12=
EXTT13=
EXTT14=
EXTT15=
EXTT16=
EXTT17=
EXTT18=
EXTT19=
EXTT20=
EXTT21=
EXTT22=
EXTT23=
EXTT24=
PLAYORDER=
